# xmcd
#
# Track frame offsets:
#	150
#	2417
#	20732
#	37487
#	55397
#	76062
#	91532
#	114655
#	130205
#	150150
#	172180
#	194022
#
# Disc length: 2956 seconds
#
# Revision: 13
# Processed by: cddbd v1.5.2PL0 Copyright (c) Steve Scherf et al.
# Submitted via: Jack! The Knife 20 Magnifico
#
DISCID=950b8a0c
DTITLE=Gotthard - Homerun
DYEAR=2001
DGENRE=Hard Rock
TTITLE0=Wun Ga-Li (Intro)
TTITLE1=Everything Can Change
TTITLE2=Take It Easy
TTITLE3=Light In Your Eyes
TTITLE4=Heaven
TTITLE5=Lonely People
TTITLE6=Eagle
TTITLE7=End Of Time
TTITLE8=Say Goodbye
TTITLE9=Reason To Live
TTITLE10=Come Along
TTITLE11=Homerun
EXTD=Chris Von Rohr and Leo Leoni
EXTT0=Lee, Leoni, Von Rohr
EXTT1=Lee, Leoni, Von Rohr
EXTT2=Lee, Leoni, Von Rohr
EXTT3=Lee, Leoni, Von Rohr
EXTT4=Lee, Leoni, Von Rohr
EXTT5=Lee, Leoni, Von Rohr
EXTT6=Lee, Leoni, Von Rohr
EXTT7=Lee, Leoni, Von Rohr
EXTT8=Lee, Leoni, Von Rohr
EXTT9=Lee, Leoni, Von Rohr
EXTT10=Lee, Leoni, Von Rohr
EXTT11=Lee, Leoni, Von Rohr
PLAYORDER=
